<svg xmlns="http://www.w3.org/2000/svg" width="30.565" height="29.348" viewBox="0 0 30.565 29.348">
  <path id="Path_3943" data-name="Path 3943" d="M107.739,453.781l.213.628h.479L107.6,452.1h-.435l-.867,2.307h.462l.225-.628Zm-.156-.408h-.458l.239-.655ZM109,454H110.1v.409h-1.535V452.1H109Zm-.4.693c-1.055,0-1.337,1.117-1.337,1.778s.282,1.778,1.337,1.778,1.337-1.118,1.337-1.778S109.661,454.693,108.605,454.693Zm.826,1.778c0,.742-.332,1.241-.826,1.241s-.826-.5-.826-1.241.332-1.241.826-1.241S109.432,455.729,109.432,456.471Zm-8.439-1.778c-1.055,0-1.337,1.117-1.337,1.778s.281,1.778,1.337,1.778,1.336-1.118,1.336-1.778S102.048,454.693,100.993,454.693Zm.826,1.778c0,.742-.332,1.241-.826,1.241s-.826-.5-.826-1.241.332-1.241.826-1.241S101.819,455.729,101.819,456.471Zm4.455-1.693h-1.239v3.385h.5V456.8h.739c.622,0,.843-.557.843-1.035A.873.873,0,0,0,106.273,454.778Zm-.739.524h.635c.3,0,.437.148.437.466,0,.35-.139.506-.451.506h-.621Zm-5.193-2.792v.511h1.181v.408H100.34V454h1.3v.409H99.9V452.1h1.721v.409Zm4.41-.409v1.433c0,.432.257.522.472.522a.451.451,0,0,0,.493-.517V452.1h.442v1.475a.859.859,0,0,1-.943.889.822.822,0,0,1-.9-.85V452.1Zm-.881,2.677H102.63v3.385h.5V456.8h.74c.622,0,.843-.557.843-1.035A.873.873,0,0,0,103.869,454.778Zm-.74.524h.635c.3,0,.437.148.437.466,0,.35-.139.506-.451.506h-.621Zm-.2-3.257a1.21,1.21,0,1,0,.55,2.293l.347.268.244-.289-.292-.227a1.33,1.33,0,0,0,.278-.835A1.121,1.121,0,0,0,102.933,452.045Zm-.014,1.857.178.138a.714.714,0,0,1-.164.018c-.411,0-.676-.315-.676-.8s.265-.8.676-.8.676.315.676.8a.9.9,0,0,1-.171.565l-.276-.215Zm22.2.877h.58l-1.024,2.026v1.359h-.5V456.8l-.928-1.835v.347h-.876v2.848h-.5v-2.848H121v-.538h2.732l.7,1.455Zm-12.7,2.912-.022-.587c-.012-.376-.115-.522-.252-.615a.918.918,0,0,0,.3-.765.846.846,0,0,0-.926-.945H110.25v3.385h.5v-1.388h.772c.32,0,.386.2.386.5a4.979,4.979,0,0,0,.064.83l.015.057h.562v-.186l-.032-.022C112.437,457.9,112.422,457.859,112.419,457.691Zm-.482-1.922c0,.426-.228.484-.451.484h-.736V455.3h.8C111.729,455.3,111.937,455.355,111.937,455.768Zm11.539-2.516c0,.54.216.814.643.814a.613.613,0,0,0,.4-.122.546.546,0,0,0,.207-.44h-.671v-.4h1.1v1.3h-.323l-.049-.2a.993.993,0,0,1-.673.255.943.943,0,0,1-.713-.264,1.235,1.235,0,0,1-.362-.964,1.114,1.114,0,0,1,1.1-1.193.942.942,0,0,1,.988.777l.011.085h-.427l-.014-.057a.53.53,0,0,0-.573-.4C123.73,452.453,123.476,452.774,123.476,453.253Zm-2.974,1.156h-.442V452.1h.442ZM112.544,428.9l-15.058,9.035-.037.022v2.683h2.566v10.7H125.2v-10.7h2.816v-2.684Zm10.064,9.145V449H102.794V438.045l9.751-5.279Zm-14.456,5.2h9.162V446.4h-9.162Zm12.119,11.534h.5v3.385h-.5Zm-3.02-12.448h-9.162v-3.154h9.162Zm4.078,12.078H120.9V452.1h.462l.968,1.563V452.1h.433v2.307h-.444l-.986-1.567Zm-8.743.37h2.252v.538h-.876v2.848h-.5v-2.848h-.876Zm-.008-.37V453.4H111.6v1.006h-.441V452.1h.441v.892h.977V452.1h.441v2.307Zm2.935-1.154a1.129,1.129,0,1,0-1.126,1.211A1.121,1.121,0,0,0,115.513,453.255Zm-1.126-.8c.411,0,.676.315.676.8s-.265.8-.676.8-.676-.315-.676-.8S113.976,452.453,114.386,452.453Zm2.323,2.325h.5v2.175c0,.787-.438,1.3-1.117,1.3a1.1,1.1,0,0,1-1.07-1.238v-2.233h.5v2.112c0,.53.206.822.581.822.226,0,.606-.106.606-.812Zm2.62,0h.489v3.385H119.3l-1.2-2.386v2.386h-.489v-3.385h.536l1.18,2.382Zm-2.162-2.677h.441v1.475a.859.859,0,0,1-.943.889.822.822,0,0,1-.9-.85V452.1h.441v1.433c0,.432.257.522.472.522a.451.451,0,0,0,.493-.517Zm1.141,1.46v.075c0,.388.363.43.52.43s.49-.028.49-.288c0-.158-.033-.221-.4-.308l-.441-.1a.573.573,0,0,1-.517-.581.731.731,0,0,1,.817-.742c.582,0,.89.256.916.759l0,.079h-.424l0-.072a.4.4,0,0,0-.46-.367c-.191,0-.418.053-.418.3,0,.11.055.166.2.2l.615.141a.631.631,0,0,1,.548.65c0,.536-.475.727-.919.727a.94.94,0,0,1-.7-.226.744.744,0,0,1-.244-.6v-.075Z" transform="translate(-97.45 -428.901)" fill="#001e3a"/>
</svg>
