<svg xmlns="http://www.w3.org/2000/svg" width="29.181" height="29.181" viewBox="0 0 29.181 29.181"><path d="M29.181,27.552a1.619,1.619,0,0,1-.456,1.14,1.533,1.533,0,0,1-1.173.489H20.127V17.847H23.9l.586-4.364H20.127v-2.8a2.419,2.419,0,0,1,.391-1.563,2.257,2.257,0,0,1,1.759-.586h2.345V4.559q-1.368-.13-3.387-.13a5.685,5.685,0,0,0-4.1,1.5,5.677,5.677,0,0,0-1.563,4.3v3.257H11.789v4.364h3.778V29.181H1.629a1.533,1.533,0,0,1-1.173-.489A1.619,1.619,0,0,1,0,27.552V1.628A1.587,1.587,0,0,1,.456.456,1.588,1.588,0,0,1,1.629,0H27.552a1.618,1.618,0,0,1,1.14.456,1.532,1.532,0,0,1,.489,1.172Z" fill="#c4a881"></path></svg>