<svg xmlns="http://www.w3.org/2000/svg" width="29.181" height="29.181" viewBox="0 0 29.181 29.181"><path d="M120.241,8.533q.065,1.824.065,6.058t-.1,6.09a12.274,12.274,0,0,1-.554,3.224,7.623,7.623,0,0,1-4.624,4.625,12.3,12.3,0,0,1-3.224.554q-1.856.1-6.09.1t-6.09-.1a10.639,10.639,0,0,1-3.224-.619,6.942,6.942,0,0,1-2.833-1.726A7.593,7.593,0,0,1,91.776,23.9a12.294,12.294,0,0,1-.554-3.224q-.1-1.856-.1-6.09t.1-6.09a12.294,12.294,0,0,1,.554-3.224A7.625,7.625,0,0,1,96.4.651,12.294,12.294,0,0,1,99.625.1q1.856-.1,6.09-.1t6.09.1a12.3,12.3,0,0,1,3.224.554,7.623,7.623,0,0,1,4.624,4.625,13.262,13.262,0,0,1,.586,3.257m-3.127,14.656a13.723,13.723,0,0,0,.521-3.517q.065-1.433.065-4.039V13.548q0-2.671-.065-4.039a13.073,13.073,0,0,0-.521-3.517,4.7,4.7,0,0,0-2.8-2.8,13.054,13.054,0,0,0-3.517-.521q-1.433-.065-4.039-.065h-2.084q-2.605,0-4.039.065a13.691,13.691,0,0,0-3.517.521,4.7,4.7,0,0,0-2.8,2.8A13.05,13.05,0,0,0,93.8,9.51q-.065,1.433-.065,4.039v2.084q0,2.605.065,4.039a13.7,13.7,0,0,0,.521,3.517,4.936,4.936,0,0,0,2.8,2.8,13.691,13.691,0,0,0,3.517.521q1.433.065,4.039.065h2.084q2.671,0,4.039-.065a13.054,13.054,0,0,0,3.517-.521,4.937,4.937,0,0,0,2.8-2.8M105.715,7.1a7.29,7.29,0,0,1,3.745,1.01,7.514,7.514,0,0,1,2.736,2.736,7.451,7.451,0,0,1,0,7.491,7.514,7.514,0,0,1-2.736,2.736,7.451,7.451,0,0,1-7.491,0,7.514,7.514,0,0,1-2.736-2.736,7.451,7.451,0,0,1,0-7.491,7.514,7.514,0,0,1,2.736-2.736,7.291,7.291,0,0,1,3.745-1.01m0,12.376A4.893,4.893,0,0,0,110.6,14.59a4.885,4.885,0,1,0-8.337,3.452,4.705,4.705,0,0,0,3.452,1.433m9.575-12.7a1.759,1.759,0,1,0-3,1.238,1.691,1.691,0,0,0,1.238.521,1.587,1.587,0,0,0,1.205-.521,2.031,2.031,0,0,0,.554-1.238" transform="translate(-91.125)" fill="#c4a881"></path></svg>